<svg viewBox="0 0 240 180" xmlns="http://www.w3.org/2000/svg">
  <rect width="240" height="180" fill="#fbf3df"/>
  <line x1="120" y1="150" x2="120" y2="55" stroke="#8a6d1f" stroke-width="4" stroke-linecap="round"/>
  <ellipse cx="105" cy="70" rx="10" ry="16" fill="#e0b23e" transform="rotate(-25 105 70)"/>
  <ellipse cx="135" cy="70" rx="10" ry="16" fill="#e0b23e" transform="rotate(25 135 70)"/>
  <ellipse cx="100" cy="95" rx="10" ry="16" fill="#d6a52e" transform="rotate(-25 100 95)"/>
  <ellipse cx="140" cy="95" rx="10" ry="16" fill="#d6a52e" transform="rotate(25 140 95)"/>
  <ellipse cx="97" cy="120" rx="10" ry="16" fill="#e0b23e" transform="rotate(-25 97 120)"/>
  <ellipse cx="143" cy="120" rx="10" ry="16" fill="#e0b23e" transform="rotate(25 143 120)"/>
  <ellipse cx="120" cy="55" rx="9" ry="14" fill="#eec55a"/>
  <line x1="70" y1="150" x2="70" y2="90" stroke="#8a6d1f" stroke-width="3" stroke-linecap="round"/>
  <ellipse cx="60" cy="100" rx="7" ry="11" fill="#d6a52e" transform="rotate(-25 60 100)"/>
  <ellipse cx="80" cy="100" rx="7" ry="11" fill="#d6a52e" transform="rotate(25 80 100)"/>
  <line x1="172" y1="150" x2="172" y2="95" stroke="#8a6d1f" stroke-width="3" stroke-linecap="round"/>
  <ellipse cx="162" cy="105" rx="7" ry="11" fill="#e0b23e" transform="rotate(-25 162 105)"/>
  <ellipse cx="182" cy="105" rx="7" ry="11" fill="#e0b23e" transform="rotate(25 182 105)"/>
</svg>
